<?xml version="1.0" standalone="no"?>
 <!DOCTYPE svg PUBLIC "-//W3C//DTD SVG 1.1//EN" 
 "http://www.w3.org/Graphics/SVG/1.1/DTD/svg11.dtd"> 
<svg xmlns="http://www.w3.org/2000/svg" version="1.1" 
    width="2.30378cm" height="2.53492cm" viewBox="0 0 9070 9980 ">
<title>SVG Picture created as LM3670.svg date 2020/01/07 19:43:32 </title>
  <desc>Picture generated by Eeschema-SVG </desc>
<g style="fill:#000000; fill-opacity:1;stroke:#000000; stroke-opacity:1;
stroke-linecap:round; stroke-linejoin:round; "
 transform="translate(0 0) scale(1 1)">
</g>
<g style="fill:#000000; fill-opacity:0.0; 
stroke:#000000; stroke-width:-10; stroke-opacity:1; 
stroke-linecap:round; stroke-linejoin:round;">
</g>
<g style="fill:#000000; fill-opacity:0.0; 
stroke:#000000; stroke-width:60; stroke-opacity:1; 
stroke-linecap:round; stroke-linejoin:round;">
<rect x="530" y="2990" width="7500" height="4000" rx="0" />
<path d="M2030 6990
L2030 8990
" />
<path d="M1760 6740
L2260 6580
L1760 6410
" />
<path d="M2260 6240
L1920 6240
" />
<path d="M1760 6240
L1780 6260
L1800 6240
L1780 6220
L1760 6240
L1800 6240
" />
<path d="M1920 6000
L2260 6000
" />
<path d="M1970 6000
L1950 5980
L1920 5930
L1920 5860
L1950 5810
L1990 5790
L2260 5790
" />
<path d="M1910 7850
L1910 8130
" />
<path d="M1910 7990
L1410 7990
L1480 8040
L1530 8090
L1550 8130
" />
<path d="M4530 6990
L4530 8990
" />
<path d="M4280 6410
L4260 6460
L4260 6530
L4280 6600
L4330 6650
L4380 6670
L4470 6690
L4540 6690
L4640 6670
L4680 6650
L4730 6600
L4760 6530
L4760 6480
L4730 6410
L4710 6390
L4540 6390
L4540 6480
" />
<path d="M4760 6170
L4260 6170
L4760 5890
L4260 5890
" />
<path d="M4760 5650
L4260 5650
L4260 5530
L4280 5460
L4330 5410
L4380 5390
L4470 5370
L4540 5370
L4640 5390
L4680 5410
L4730 5460
L4760 5530
L4760 5650
" />
<path d="M3950 8130
L3930 8110
L3910 8060
L3910 7940
L3930 7900
L3950 7870
L4000 7850
L4050 7850
L4120 7870
L4410 8160
L4410 7850
" />
<path d="M7030 6990
L7030 8990
" />
<path d="M6990 6670
L6990 6500
" />
<path d="M7260 6430
L7260 6670
L6760 6670
L6760 6430
" />
<path d="M7260 6220
L6760 6220
L7260 5940
L6760 5940
" />
<path d="M6410 8160
L6410 7850
L6600 8020
L6600 7940
L6620 7900
L6640 7870
L6690 7850
L6810 7850
L6860 7870
L6880 7900
L6910 7940
L6910 8090
L6880 8130
L6860 8160
" />
<path d="M7030 2990
L7030 990
" />
<path d="M6990 3830
L6990 4000
" />
<path d="M7260 4000
L6760 4000
L6760 3760
" />
<path d="M6990 3400
L7020 3330
L7040 3310
L7090 3290
L7160 3290
L7210 3310
L7230 3330
L7260 3380
L7260 3570
L6760 3570
L6760 3400
L6780 3360
L6800 3330
L6850 3310
L6900 3310
L6950 3330
L6970 3360
L6990 3400
L6990 3570
" />
<path d="M6570 1900
L6910 1900
" />
<path d="M6380 2020
L6740 2130
L6740 1830
" />
<path d="M2030 2990
L2030 990
" />
<path d="M2230 4140
L2260 4070
L2260 3950
L2230 3910
L2210 3880
L2160 3860
L2110 3860
L2070 3880
L2040 3910
L2020 3950
L1990 4050
L1970 4100
L1950 4120
L1900 4140
L1850 4140
L1800 4120
L1780 4100
L1760 4050
L1760 3930
L1780 3860
" />
<path d="M1760 3690
L2260 3570
L1900 3470
L2260 3380
L1760 3260
" />
<path d="M1410 1870
L1410 2110
L1640 2130
L1620 2110
L1600 2060
L1600 1940
L1620 1900
L1640 1870
L1690 1850
L1810 1850
L1860 1870
L1880 1900
L1910 1940
L1910 2060
L1880 2110
L1860 2130
" />
<path d="M4100 4690
L4100 5180
L4130 5230
L4160 5260
L4220 5290
L4330 5290
L4390 5260
L4420 5230
L4450 5180
L4450 4690
" />
<path d="M4820 5230
L4850 5260
L4820 5290
L4790 5260
L4820 5230
L4820 5290
" />
<path d="M4700 4720
L4760 4690
L4900 4690
L4960 4720
L4990 4780
L4990 4830
L4960 4890
L4930 4920
L4880 4950
L4850 4980
L4820 5030
L4820 5060
" />
<path d="M3230 5290
L2940 5290
L2940 4690
" />
<path d="M3430 5290
L3430 4690
L3630 5120
L3830 4690
L3830 5290
" />
<path d="M4070 4690
L4440 4690
L4240 4920
L4320 4920
L4380 4950
L4410 4980
L4440 5030
L4440 5180
L4410 5230
L4380 5260
L4320 5290
L4150 5290
L4090 5260
L4070 5230
" />
<path d="M4950 4690
L4840 4690
L4780 4720
L4750 4750
L4690 4830
L4660 4950
L4660 5180
L4690 5230
L4720 5260
L4780 5290
L4890 5290
L4950 5260
L4980 5230
L5010 5180
L5010 5030
L4980 4980
L4950 4950
L4890 4920
L4780 4920
L4720 4950
L4690 4980
L4660 5030
" />
<path d="M5210 4690
L5610 4690
L5350 5290
" />
<path d="M5950 4690
L6000 4690
L6060 4720
L6090 4750
L6120 4810
L6150 4920
L6150 5060
L6120 5180
L6090 5230
L6060 5260
L6000 5290
L5950 5290
L5890 5260
L5860 5230
L5830 5180
L5800 5060
L5800 4920
L5830 4810
L5860 4750
L5890 4720
L5950 4690
" />
</g> 
</svg>
